<svg width="32" height="30" xmlns="http://www.w3.org/2000/svg" xmlns:xlink="http://www.w3.org/1999/xlink" overflow="hidden"><defs><clipPath id="clip0"><rect x="350" y="98" width="32" height="30"/></clipPath><clipPath id="clip1"><rect x="351" y="99" width="31" height="28"/></clipPath><clipPath id="clip2"><rect x="351" y="99" width="31" height="28"/></clipPath><clipPath id="clip3"><rect x="351" y="99" width="31" height="28"/></clipPath></defs><g clip-path="url(#clip0)" transform="translate(-350 -98)"><g clip-path="url(#clip1)"><g clip-path="url(#clip2)"><g clip-path="url(#clip3)"><path d="M19.6793 27.3779C19.2067 27.3788 18.8229 26.9961 18.8221 26.5234 18.8221 26.523 18.8221 26.5225 18.8221 26.5221L18.8221 19.6779C18.8229 19.2053 18.4402 18.8215 17.9676 18.8207 17.9672 18.8207 17.9666 18.8207 17.9662 18.8207L12.8338 18.8207C12.3611 18.8207 11.9779 19.2039 11.9779 19.6766 11.9779 19.677 11.9779 19.6775 11.9779 19.6779L11.9779 26.5221C11.9779 26.9947 11.5948 27.3779 11.1221 27.3779L4.27793 27.3779C3.80601 27.3788 3.42282 26.9968 3.42207 26.5248 3.42207 26.5239 3.42207 26.523 3.42207 26.5221L3.42207 16.633C3.52385 16.5819 3.62193 16.5237 3.71559 16.4589L15.4 6.15424 27.0968 16.4589C27.1869 16.5217 27.2808 16.5789 27.3779 16.6303L27.3779 26.5166C27.3788 26.9885 26.9968 27.3716 26.5248 27.3724 26.5239 27.3724 26.523 27.3724 26.5221 27.3724ZM1.95586 15.4C1.72897 15.3875 1.51634 15.2853 1.36471 15.1161L0.219451 13.8446C-0.0964736 13.4941-0.0683863 12.9538 0.282186 12.6378 0.282762 12.6373 0.283338 12.6368 0.283915 12.6363L13.9722 0.548628C14.7836-0.185546 16.0191-0.185546 16.8305 0.548628L30.5175 12.6349C30.8683 12.9503 30.8978 13.4902 30.5833 13.8419L29.4394 15.1161C29.1245 15.4675 28.5842 15.4971 28.2328 15.1821 28.2321 15.1816 28.2316 15.1811 28.231 15.1805L15.9678 4.36434C15.6444 4.07944 15.1597 4.07944 14.8363 4.36434L2.57307 15.1819C2.41512 15.3235 2.21045 15.4016 1.99838 15.4014Z" fill="#000000" fill-rule="nonzero" fill-opacity="1" transform="matrix(1.00649 0 0 1 351 99.3124)"/></g></g></g></g></svg>