<svg width="39" height="40" xmlns="http://www.w3.org/2000/svg" xmlns:xlink="http://www.w3.org/1999/xlink" overflow="hidden"><defs><clipPath id="clip0"><rect x="722" y="88" width="39" height="40"/></clipPath><clipPath id="clip1"><rect x="723" y="89" width="38" height="38"/></clipPath><clipPath id="clip2"><rect x="723" y="89" width="38" height="38"/></clipPath><clipPath id="clip3"><rect x="723" y="89" width="38" height="38"/></clipPath></defs><g clip-path="url(#clip0)" transform="translate(-722 -88)"><g clip-path="url(#clip1)"><g clip-path="url(#clip2)"><g clip-path="url(#clip3)"><path d="M11.875 35.7865 11.875 29.7757 4.75 29.7757C2.18112 29.8033 0.0658579 27.7635 0 25.1954L0 4.58171C0.0651296 2.013 2.1806-0.0275299 4.75-9.83646e-08L33.25 0C35.8197-0.0282644 37.9355 2.01268 38 4.58171L38 25.1954C37.9355 27.7644 35.8197 29.8053 33.25 29.7771L22.5625 29.7771 13.2851 36.5071C13.1323 36.5974 12.9577 36.6443 12.7802 36.6429 12.3009 36.6631 11.896 36.2911 11.8757 35.8117 11.8753 35.8033 11.8751 35.7949 11.875 35.7865Z" fill="#707070" fill-rule="nonzero" fill-opacity="1" transform="matrix(1 0 0 1.03704 723 89)"/></g></g></g></g></svg>