<svg width="40" height="40" xmlns="http://www.w3.org/2000/svg" xmlns:xlink="http://www.w3.org/1999/xlink" overflow="hidden"><defs><clipPath id="clip0"><rect x="409" y="92" width="40" height="40"/></clipPath><clipPath id="clip1"><rect x="410" y="93" width="39" height="39"/></clipPath><clipPath id="clip2"><rect x="410" y="93" width="39" height="39"/></clipPath><clipPath id="clip3"><rect x="410" y="93" width="39" height="39"/></clipPath></defs><g clip-path="url(#clip0)" transform="translate(-409 -92)"><g clip-path="url(#clip1)"><g clip-path="url(#clip2)"><g clip-path="url(#clip3)"><path d="M446.818 126.411 438.845 118.591C443.621 112.35 442.652 103.458 436.645 98.3921 430.605 93.2701 421.66 93.5821 415.992 99.1126 410.37 104.599 410.047 113.532 415.257 119.411 420.52 125.33 429.423 126.269 435.805 121.58L443.761 129.419C444.612 130.248 445.968 130.248 446.818 129.419 447.649 128.608 447.665 127.278 446.855 126.447 446.843 126.435 446.831 126.423 446.818 126.411ZM426.776 120.312C420.902 120.362 416.099 115.641 416.049 109.767 416.12 103.842 420.981 99.0967 426.906 99.168 432.73 99.238 437.435 103.942 437.505 109.767 437.454 115.641 432.652 120.362 426.778 120.312Z" stroke="#FFFFFF" stroke-width="3.09893" stroke-linecap="butt" stroke-linejoin="miter" stroke-miterlimit="4" stroke-opacity="1" fill="#090909" fill-rule="nonzero" fill-opacity="1"/></g></g></g></g></svg>