<svg width="38" height="40" xmlns="http://www.w3.org/2000/svg" xmlns:xlink="http://www.w3.org/1999/xlink" overflow="hidden"><defs><clipPath id="clip0"><rect x="470" y="92" width="38" height="40"/></clipPath><clipPath id="clip1"><rect x="471" y="93" width="36" height="38"/></clipPath><clipPath id="clip2"><rect x="471" y="93" width="36" height="38"/></clipPath><clipPath id="clip3"><rect x="471" y="93" width="36" height="38"/></clipPath></defs><g clip-path="url(#clip0)" transform="translate(-470 -92)"><g clip-path="url(#clip1)"><g clip-path="url(#clip2)"><g clip-path="url(#clip3)"><path d="M13.8634 37.1512C13.4467 37.0598 13.1502 36.6903 13.1512 36.2638L13.1512 32.5332C11.4616 31.9423 9.89779 31.04 8.54074 29.8728L5.31135 31.7381C4.9424 31.9476 4.47772 31.8749 4.1903 31.5629 2.29402 29.5088 0.878165 27.0587 0.045219 24.39-0.0797117 23.9827 0.0929014 23.5429 0.461611 23.3293L3.69289 21.464C3.36563 19.7048 3.36563 17.9004 3.69289 16.1413L0.459727 14.276C0.0881782 14.0649-0.085343 13.6228 0.0433349 13.2153 0.872803 10.5457 2.2891 8.09547 4.18841 6.04428 4.47333 5.72754 4.94148 5.65438 5.30947 5.86905L8.53509 7.72492C9.89856 6.56972 11.46 5.67094 13.1437 5.07207L13.1437 1.3415C13.1442 0.914879 13.4411 0.545935 13.8577 0.454074 16.5842-0.151458 19.4103-0.151458 22.1366 0.454074 22.5528 0.546057 22.8492 0.915195 22.8488 1.3415L22.8488 5.06453C24.5383 5.65537 26.1023 6.55776 27.4593 7.72492L30.6905 5.85963C31.0594 5.65014 31.5241 5.72277 31.8116 6.03486 33.7078 8.08901 35.1237 10.5391 35.9567 13.2077 36.0816 13.6151 35.909 14.0549 35.5403 14.2685L32.3109 16.1338C32.6365 17.8931 32.6365 19.6972 32.3109 21.4564L35.5403 23.3217C35.9082 23.5399 36.0833 23.9785 35.9661 24.39 35.1348 27.0594 33.7189 29.5099 31.821 31.5629 31.5344 31.8839 31.0608 31.9572 30.6905 31.7381L27.4611 29.8728C26.0993 31.0321 24.5375 31.9335 22.8526 32.5332L22.8526 36.2638C22.8535 36.6903 22.5569 37.0598 22.1404 37.1512 19.4135 37.7585 16.5865 37.7585 13.8596 37.1512Z" fill="#545353" fill-rule="nonzero" fill-opacity="1" transform="matrix(1 0 0 1.00278 471 93.1442)"/></g></g></g></g></svg>