<svg width="56" height="56" xmlns="http://www.w3.org/2000/svg" xmlns:xlink="http://www.w3.org/1999/xlink" overflow="hidden"><defs><clipPath id="clip0"><rect x="544" y="84" width="56" height="56"/></clipPath><clipPath id="clip1"><rect x="545" y="85" width="55" height="55"/></clipPath><clipPath id="clip2"><rect x="545" y="85" width="55" height="55"/></clipPath><clipPath id="clip3"><rect x="545" y="85" width="55" height="55"/></clipPath><clipPath id="clip4"><rect x="545" y="85" width="55" height="55"/></clipPath></defs><g clip-path="url(#clip0)" transform="translate(-544 -84)"><g clip-path="url(#clip1)"><g clip-path="url(#clip2)"><g clip-path="url(#clip3)"><g clip-path="url(#clip4)"><path d="M547.36 98.546 618.154 98.546C619.336 98.651 620.385 97.7909 620.514 96.611 620.385 95.4311 619.336 94.571 618.154 94.676L547.36 94.676C546.177 94.5711 545.128 95.4323 545 96.613 545.13 97.7921 546.178 98.6511 547.36 98.546Z" fill="#2E4765" fill-rule="nonzero" fill-opacity="0.82"/><path d="M603.636 112.312 546.891 112.312C545.822 112.336 544.975 113.223 545 114.292 545.023 115.326 545.856 116.16 546.891 116.183L603.636 116.183C604.705 116.159 605.552 115.273 605.528 114.204 605.504 113.169 604.671 112.336 603.636 112.312Z" fill="#2E4765" fill-rule="nonzero" fill-opacity="0.82"/><path d="M618.154 129.947 547.36 129.947C546.177 129.842 545.128 130.703 545 131.883 545.129 133.063 546.178 133.923 547.36 133.818L618.154 133.818C619.336 133.923 620.385 133.063 620.514 131.883 620.386 130.703 619.337 129.842 618.154 129.947Z" fill="#2E4765" fill-rule="nonzero" fill-opacity="0.82"/></g></g></g></g></g></svg>